<svg xmlns="http://www.w3.org/2000/svg" width="1761.4498828124997" height="250.0"><line x1="39.810625" x2="1731.4498828124997" y1="25.0" y2="25.0" stroke="#1967d2" stroke-width="1" /><line x1="39.810625" x2="1731.4498828124997" y1="75.0" y2="75.0" stroke="#1967d2" stroke-width="1" /><line x1="39.810625" x2="1731.4498828124997" y1="125.0" y2="125.0" stroke="#1967d2" stroke-width="1" /><line x1="39.810625" x2="1731.4498828124997" y1="175.0" y2="175.0" stroke="#1967d2" stroke-width="1" /><line x1="39.810625" x2="1731.4498828124997" y1="225.0" y2="225.0" stroke="#1967d2" stroke-width="1" /><line x1="318.56830078125006" x2="318.56830078125006" y1="25.0" y2="75.0" stroke="black" stroke-width="3" /><line x1="437.12732421875006" x2="437.12732421875006" y1="25.0" y2="125.0" stroke="black" stroke-width="3" /><line x1="555.6863476562501" x2="555.6863476562501" y1="25.0" y2="175.0" stroke="black" stroke-width="3" /><line x1="674.24537109375" x2="674.24537109375" y1="25.0" y2="225.0" stroke="black" stroke-width="3" /><line x1="791.98845703125" x2="791.98845703125" y1="25.0" y2="75.0" stroke="black" stroke-width="3" /><line x1="908.9156054687501" x2="908.9156054687501" y1="25.0" y2="125.0" stroke="black" stroke-width="3" /><line x1="1025.8427539062502" x2="1025.8427539062502" y1="25.0" y2="175.0" stroke="black" stroke-width="3" /><line x1="1142.7699023437501" x2="1142.7699023437501" y1="25.0" y2="225.0" stroke="black" stroke-width="3" /><line x1="1258.76052734375" x2="1258.76052734375" y1="25.0" y2="75.0" stroke="black" stroke-width="3" /><line x1="1373.81462890625" x2="1373.81462890625" y1="25.0" y2="125.0" stroke="black" stroke-width="3" /><line x1="1488.8687304687498" x2="1488.8687304687498" y1="25.0" y2="175.0" stroke="black" stroke-width="3" /><line x1="1603.9228320312498" x2="1603.9228320312498" y1="25.0" y2="225.0" stroke="black" stroke-width="3" /><rect x="10.0" y="5.0" width="59.62125" height="40" stroke="black" fill="white" stroke-width="0" /><text x="39.810625" y="25.0" dominant-baseline="middle" text-anchor="middle" font-size="14px" font-family="Arial">(-1, -1): </text><rect x="10.0" y="55.0" width="59.62125" height="40" stroke="black" fill="white" stroke-width="0" /><text x="39.810625" y="75.0" dominant-baseline="middle" text-anchor="middle" font-size="14px" font-family="Arial">(0, 0): </text><rect x="10.0" y="105.0" width="59.62125" height="40" stroke="black" fill="white" stroke-width="0" /><text x="39.810625" y="125.0" dominant-baseline="middle" text-anchor="middle" font-size="14px" font-family="Arial">(0, 1): </text><rect x="10.0" y="155.0" width="59.62125" height="40" stroke="black" fill="white" stroke-width="0" /><text x="39.810625" y="175.0" dominant-baseline="middle" text-anchor="middle" font-size="14px" font-family="Arial">(1, 0): </text><rect x="10.0" y="205.0" width="59.62125" height="40" stroke="black" fill="white" stroke-width="0" /><text x="39.810625" y="225.0" dominant-baseline="middle" text-anchor="middle" font-size="14px" font-family="Arial">(1, 1): </text><rect x="89.62125" y="5.0" width="99.66753906250001" height="40" stroke="black" fill="white" stroke-width="1" /><text x="139.45501953125" y="25.0" dominant-baseline="middle" text-anchor="middle" font-size="18px" font-family="Arial">X</text><rect x="89.62125" y="55.0" width="99.66753906250001" height="40" stroke="black" fill="white" stroke-width="1" /><text x="139.45501953125" y="75.0" dominant-baseline="middle" text-anchor="middle" font-size="14px" font-family="Arial">Rx(data3-00)</text><rect x="89.62125" y="105.0" width="99.66753906250001" height="40" stroke="black" fill="white" stroke-width="1" /><text x="139.45501953125" y="125.0" dominant-baseline="middle" text-anchor="middle" font-size="14px" font-family="Arial">Rx(data3-01)</text><rect x="89.62125" y="155.0" width="99.66753906250001" height="40" stroke="black" fill="white" stroke-width="1" /><text x="139.45501953125" y="175.0" dominant-baseline="middle" text-anchor="middle" font-size="14px" font-family="Arial">Rx(data3-02)</text><rect x="89.62125" y="205.0" width="99.66753906250001" height="40" stroke="black" fill="white" stroke-width="1" /><text x="139.45501953125" y="225.0" dominant-baseline="middle" text-anchor="middle" font-size="14px" font-family="Arial">Rx(data3-03)</text><rect x="209.28878906250003" y="5.0" width="40" height="40" stroke="black" fill="white" stroke-width="1" /><text x="229.28878906250003" y="25.0" dominant-baseline="middle" text-anchor="middle" font-size="18px" font-family="Arial">H</text><rect x="269.28878906250003" y="55.0" width="98.55902343750002" height="40" stroke="black" fill="white" stroke-width="1" /><text x="318.56830078125006" y="75.0" dominant-baseline="middle" text-anchor="middle" font-size="14px" font-family="Arial">XX^(xx3-00)</text><rect x="269.28878906250003" y="5.0" width="98.55902343750002" height="40" stroke="black" fill="white" stroke-width="1" /><text x="318.56830078125006" y="25.0" dominant-baseline="middle" text-anchor="middle" font-size="14px" font-family="Arial">XX</text><rect x="387.84781250000003" y="105.0" width="98.55902343750002" height="40" stroke="black" fill="white" stroke-width="1" /><text x="437.12732421875006" y="125.0" dominant-baseline="middle" text-anchor="middle" font-size="14px" font-family="Arial">XX^(xx3-01)</text><rect x="387.84781250000003" y="5.0" width="98.55902343750002" height="40" stroke="black" fill="white" stroke-width="1" /><text x="437.12732421875006" y="25.0" dominant-baseline="middle" text-anchor="middle" font-size="14px" font-family="Arial">XX</text><rect x="506.40683593750003" y="155.0" width="98.55902343750002" height="40" stroke="black" fill="white" stroke-width="1" /><text x="555.6863476562501" y="175.0" dominant-baseline="middle" text-anchor="middle" font-size="14px" font-family="Arial">XX^(xx3-02)</text><rect x="506.40683593750003" y="5.0" width="98.55902343750002" height="40" stroke="black" fill="white" stroke-width="1" /><text x="555.6863476562501" y="25.0" dominant-baseline="middle" text-anchor="middle" font-size="14px" font-family="Arial">XX</text><rect x="624.965859375" y="205.0" width="98.55902343750002" height="40" stroke="black" fill="white" stroke-width="1" /><text x="674.24537109375" y="225.0" dominant-baseline="middle" text-anchor="middle" font-size="14px" font-family="Arial">XX^(xx3-03)</text><rect x="624.965859375" y="5.0" width="98.55902343750002" height="40" stroke="black" fill="white" stroke-width="1" /><text x="674.24537109375" y="25.0" dominant-baseline="middle" text-anchor="middle" font-size="14px" font-family="Arial">XX</text><rect x="743.5248828125001" y="55.0" width="96.92714843750001" height="40" stroke="black" fill="white" stroke-width="1" /><text x="791.98845703125" y="75.0" dominant-baseline="middle" text-anchor="middle" font-size="14px" font-family="Arial">YY^(yy3-00)</text><rect x="743.5248828125001" y="5.0" width="96.92714843750001" height="40" stroke="black" fill="white" stroke-width="1" /><text x="791.98845703125" y="25.0" dominant-baseline="middle" text-anchor="middle" font-size="14px" font-family="Arial">YY</text><rect x="860.4520312500001" y="105.0" width="96.92714843750001" height="40" stroke="black" fill="white" stroke-width="1" /><text x="908.9156054687501" y="125.0" dominant-baseline="middle" text-anchor="middle" font-size="14px" font-family="Arial">YY^(yy3-01)</text><rect x="860.4520312500001" y="5.0" width="96.92714843750001" height="40" stroke="black" fill="white" stroke-width="1" /><text x="908.9156054687501" y="25.0" dominant-baseline="middle" text-anchor="middle" font-size="14px" font-family="Arial">YY</text><rect x="977.3791796875003" y="155.0" width="96.92714843750001" height="40" stroke="black" fill="white" stroke-width="1" /><text x="1025.8427539062502" y="175.0" dominant-baseline="middle" text-anchor="middle" font-size="14px" font-family="Arial">YY^(yy3-02)</text><rect x="977.3791796875003" y="5.0" width="96.92714843750001" height="40" stroke="black" fill="white" stroke-width="1" /><text x="1025.8427539062502" y="25.0" dominant-baseline="middle" text-anchor="middle" font-size="14px" font-family="Arial">YY</text><rect x="1094.3063281250002" y="205.0" width="96.92714843750001" height="40" stroke="black" fill="white" stroke-width="1" /><text x="1142.7699023437501" y="225.0" dominant-baseline="middle" text-anchor="middle" font-size="14px" font-family="Arial">YY^(yy3-03)</text><rect x="1094.3063281250002" y="5.0" width="96.92714843750001" height="40" stroke="black" fill="white" stroke-width="1" /><text x="1142.7699023437501" y="25.0" dominant-baseline="middle" text-anchor="middle" font-size="14px" font-family="Arial">YY</text><rect x="1211.2334765625" y="55.0" width="95.05410156250001" height="40" stroke="black" fill="white" stroke-width="1" /><text x="1258.76052734375" y="75.0" dominant-baseline="middle" text-anchor="middle" font-size="14px" font-family="Arial">YY^(zz3-00)</text><rect x="1211.2334765625" y="5.0" width="95.05410156250001" height="40" stroke="black" fill="white" stroke-width="1" /><text x="1258.76052734375" y="25.0" dominant-baseline="middle" text-anchor="middle" font-size="14px" font-family="Arial">YY</text><rect x="1326.287578125" y="105.0" width="95.05410156250001" height="40" stroke="black" fill="white" stroke-width="1" /><text x="1373.81462890625" y="125.0" dominant-baseline="middle" text-anchor="middle" font-size="14px" font-family="Arial">YY^(zz3-01)</text><rect x="1326.287578125" y="5.0" width="95.05410156250001" height="40" stroke="black" fill="white" stroke-width="1" /><text x="1373.81462890625" y="25.0" dominant-baseline="middle" text-anchor="middle" font-size="14px" font-family="Arial">YY</text><rect x="1441.3416796875" y="155.0" width="95.05410156250001" height="40" stroke="black" fill="white" stroke-width="1" /><text x="1488.8687304687498" y="175.0" dominant-baseline="middle" text-anchor="middle" font-size="14px" font-family="Arial">YY^(zz3-02)</text><rect x="1441.3416796875" y="5.0" width="95.05410156250001" height="40" stroke="black" fill="white" stroke-width="1" /><text x="1488.8687304687498" y="25.0" dominant-baseline="middle" text-anchor="middle" font-size="14px" font-family="Arial">YY</text><rect x="1556.3957812499998" y="205.0" width="95.05410156250001" height="40" stroke="black" fill="white" stroke-width="1" /><text x="1603.9228320312498" y="225.0" dominant-baseline="middle" text-anchor="middle" font-size="14px" font-family="Arial">YY^(zz3-03)</text><rect x="1556.3957812499998" y="5.0" width="95.05410156250001" height="40" stroke="black" fill="white" stroke-width="1" /><text x="1603.9228320312498" y="25.0" dominant-baseline="middle" text-anchor="middle" font-size="14px" font-family="Arial">YY</text><rect x="1671.4498828124997" y="5.0" width="40" height="40" stroke="black" fill="white" stroke-width="1" /><text x="1691.4498828124997" y="25.0" dominant-baseline="middle" text-anchor="middle" font-size="18px" font-family="Arial">H</text></svg>